                <svg class="link-icon" width="144" height="52" viewBox="0 0 144 52" fill="none" xmlns="http://www.w3.org/2000/svg">
                       <path fill-rule="evenodd" clip-rule="evenodd" d="M124 52C135.046 52 144 43.0457 144 32C144 20.9543 135.046 12 124 12C112.954 12 104 20.9543 104 32C104 43.0457 112.954 52 124 52ZM136.877 43.216V43.217H131.912V35.416C131.912 33.557 131.874 31.173 129.325 31.173C126.738 31.173 126.342 33.193 126.342 35.282V43.216H121.372V27.193H126.145V29.378H126.215C126.878 28.119 128.502 26.791 130.922 26.791C135.956 26.791 136.883 30.108 136.883 34.414V43.216H136.877ZM113.396 27.1943H118.372V43.2173H113.396V27.1943ZM113 21.882C113 20.291 114.291 19 115.882 19C117.472 19 118.763 20.291 118.764 21.882C118.764 23.473 117.473 24.791 115.882 24.791C114.291 24.791 113 23.473 113 21.882Z" fill="#8CC5F9"/>
                </svg>