                <svg class="link-icon" width="144" height="52" viewBox="0 0 144 52" fill="none" xmlns="http://www.w3.org/2000/svg">
                    <path fill-rule="evenodd" clip-rule="evenodd" d="M20 52C31.0457 52 40 43.0457 40 32C40 20.9543 31.0457 12 20 12C8.9543 12 0 20.9543 0 32C0 43.0457 8.9543 52 20 52ZM10.7884 26.2675C10.8409 26.3962 10.8606 26.5348 10.8459 26.672V36.6932C10.8781 36.8714 10.8654 37.0543 10.809 37.2271C10.7525 37.3999 10.6538 37.5577 10.5209 37.6878L8 40.5768V40.9576H15.1483V40.5767L12.6274 37.6878C12.4934 37.5578 12.3925 37.4007 12.3323 37.2283C12.2721 37.056 12.2543 36.873 12.2801 36.6932V28.0265L18.5545 40.9576H19.2829L24.6723 28.0265V38.3334C24.6723 38.6084 24.6723 38.6612 24.4818 38.8412L22.5435 40.6191V41H31.9551V40.6191L30.084 38.8836C30.003 38.8253 29.9403 38.7471 29.9028 38.6576C29.8653 38.5681 29.8544 38.4706 29.8711 38.3756V25.6244C29.8544 25.5294 29.8653 25.4319 29.9028 25.3424C29.9403 25.2529 30.003 25.1747 30.084 25.1164L32 23.3809V23H25.367L20.6385 34.1429L15.2605 23H8.30229V23.3808L10.5435 25.9312C10.6519 26.0236 10.7358 26.1388 10.7884 26.2675Z" fill="#8CC5F9"/>
                    <path fill-rule="evenodd" clip-rule="evenodd" d="M72 52C83.0457 52 92 43.0457 92 32C92 20.9543 83.0457 12 72 12C60.9543 12 52 20.9543 52 32C52 43.0457 60.9543 52 72 52ZM67.0529 20.0727C65.7754 20.1308 64.9024 20.3334 64.1401 20.63C63.3505 20.9364 62.6822 21.3474 62.0143 22.0142C61.3464 22.681 60.9364 23.3504 60.6301 24.1399C60.3334 24.9027 60.1309 25.7752 60.0727 27.0526C60.0135 28.3321 60 28.7412 60 32C60 35.2588 60.0135 35.6679 60.0727 36.9474C60.1309 38.2249 60.3334 39.0973 60.6301 39.8601C60.9364 40.6491 61.3465 41.3193 62.0143 41.9858C62.6821 42.6524 63.3505 43.0628 64.1401 43.37C64.9039 43.6666 65.7754 43.8692 67.0529 43.9273C68.3331 43.9855 68.7415 44 72.0005 44C75.2594 44 75.6685 43.9865 76.948 43.9273C78.2257 43.8692 79.098 43.6666 79.8609 43.37C80.6499 43.0628 81.3188 42.6526 81.9867 41.9858C82.6546 41.319 83.0637 40.6491 83.3709 39.8601C83.6675 39.0973 83.8711 38.2248 83.9283 36.9474C83.9865 35.6669 84 35.2588 84 32C84 28.7412 83.9865 28.3321 83.9283 27.0526C83.8701 25.7751 83.6675 24.9022 83.3709 24.1399C83.0637 23.3509 82.6535 22.682 81.9867 22.0142C81.3199 21.3463 80.6499 20.9364 79.8619 20.63C79.098 20.3334 78.2256 20.1299 76.949 20.0727C75.6695 20.0145 75.2604 20 72.0014 20C68.7425 20 68.3331 20.0135 67.0529 20.0727ZM67 32C67 29.2388 69.238 27 71.9993 27C74.7608 27 77 29.2391 77 32C77 34.7609 74.7608 37 71.9993 37C69.238 37 67 34.7612 67 32ZM71.9993 25C68.1331 25 65 28.1346 65 32C65 35.8654 68.1331 39 71.9993 39C75.8652 39 79 35.8657 79 32C79 28.1343 75.8652 25 71.9993 25ZM81 24.5C81 25.3284 80.3284 26 79.5 26C78.6716 26 78 25.3284 78 24.5C78 23.6716 78.6716 23 79.5 23C80.3284 23 81 23.6716 81 24.5Z" fill="#8CC5F9"/>
                    <path fill-rule="evenodd" clip-rule="evenodd" d="M124 52C135.046 52 144 43.0457 144 32C144 20.9543 135.046 12 124 12C112.954 12 104 20.9543 104 32C104 43.0457 112.954 52 124 52ZM136.877 43.216V43.217H131.912V35.416C131.912 33.557 131.874 31.173 129.325 31.173C126.738 31.173 126.342 33.193 126.342 35.282V43.216H121.372V27.193H126.145V29.378H126.215C126.878 28.119 128.502 26.791 130.922 26.791C135.956 26.791 136.883 30.108 136.883 34.414V43.216H136.877ZM113.396 27.1943H118.372V43.2173H113.396V27.1943ZM113 21.882C113 20.291 114.291 19 115.882 19C117.472 19 118.763 20.291 118.764 21.882C118.764 23.473 117.473 24.791 115.882 24.791C114.291 24.791 113 23.473 113 21.882Z" fill="#8CC5F9"/>
                    </svg>