                <svg class="link-icon" width="144" height="52" viewBox="0 0 144 52" fill="none" xmlns="http://www.w3.org/2000/svg">
                    <path fill-rule="evenodd" clip-rule="evenodd" d="M20 52C31.0457 52 40 43.0457 40 32C40 20.9543 31.0457 12 20 12C8.9543 12 0 20.9543 0 32C0 43.0457 8.9543 52 20 52ZM10.7884 26.2675C10.8409 26.3962 10.8606 26.5348 10.8459 26.672V36.6932C10.8781 36.8714 10.8654 37.0543 10.809 37.2271C10.7525 37.3999 10.6538 37.5577 10.5209 37.6878L8 40.5768V40.9576H15.1483V40.5767L12.6274 37.6878C12.4934 37.5578 12.3925 37.4007 12.3323 37.2283C12.2721 37.056 12.2543 36.873 12.2801 36.6932V28.0265L18.5545 40.9576H19.2829L24.6723 28.0265V38.3334C24.6723 38.6084 24.6723 38.6612 24.4818 38.8412L22.5435 40.6191V41H31.9551V40.6191L30.084 38.8836C30.003 38.8253 29.9403 38.7471 29.9028 38.6576C29.8653 38.5681 29.8544 38.4706 29.8711 38.3756V25.6244C29.8544 25.5294 29.8653 25.4319 29.9028 25.3424C29.9403 25.2529 30.003 25.1747 30.084 25.1164L32 23.3809V23H25.367L20.6385 34.1429L15.2605 23H8.30229V23.3808L10.5435 25.9312C10.6519 26.0236 10.7358 26.1388 10.7884 26.2675Z" fill="#8CC5F9"/>
                </svg>